<svg width="351" height="332" viewBox="0 0 351 332" fill="none" xmlns="http://www.w3.org/2000/svg">
<path d="M70.7246 244.362C28.4097 268.19 52.2375 326.938 66.2056 329.403C76.9638 331.301 112.331 330.213 129.473 329.403L262.169 231.216L184.522 220.534C160.695 220.534 104.577 225.3 70.7246 244.362Z" fill="white"/>
<path fill-rule="evenodd" clip-rule="evenodd" d="M131.517 226.099C110.312 229.668 87.9275 235.606 71.1224 245.069C50.3473 256.767 45.7769 277.02 48.1625 294.786C49.3558 303.671 52.2886 311.891 55.7733 318.026C57.516 321.093 59.3848 323.619 61.2246 325.442C63.078 327.28 64.8345 328.338 66.3465 328.604C71.6361 329.538 83.0853 329.744 95.4364 329.608C107.636 329.473 120.621 329.007 129.188 328.604L260.087 231.748L184.467 221.345C172.589 221.349 152.677 222.539 131.517 226.099ZM131.248 224.5C152.534 220.918 172.566 219.724 184.522 219.724H184.578L264.251 230.684L129.757 330.201L129.511 330.213C120.933 330.618 107.796 331.093 95.4543 331.229C83.1469 331.365 71.5333 331.166 66.0646 330.201C64.0846 329.852 62.041 328.535 60.083 326.594C58.1114 324.64 56.1577 321.985 54.3634 318.827C50.7742 312.508 47.7758 304.089 46.5554 295.001C44.1138 276.819 48.787 255.785 70.3268 243.656C87.3737 234.056 109.975 228.08 131.248 224.5Z" fill="black"/>
<path d="M82.2267 252.427C111.477 246.84 135.223 264.021 143.44 273.31C144.812 271.39 146.296 269.493 147.898 267.627C145.373 256.535 96.1947 244.621 82.2267 252.427Z" fill="#000001"/>
<path d="M126.507 330.619C127.545 330.573 128.536 330.528 129.472 330.484L237.855 250.288C233.08 248.673 220.774 243.705 209.747 236.75C134.939 245.615 123.083 303.023 126.507 330.619Z" fill="#0E1729"/>
<path d="M250.254 330.483C304.071 313.229 262.168 235.172 262.168 232.296L242.037 229.527C139.495 235.857 124.267 299.469 129.471 330.483L146.776 473.039H191.37L195.203 330.483H250.254Z" fill="white"/>
<path fill-rule="evenodd" clip-rule="evenodd" d="M242.067 228.713L262.978 231.589V232.263C262.98 232.27 262.982 232.279 262.985 232.292C262.998 232.344 263.02 232.42 263.055 232.525C263.125 232.735 263.233 233.02 263.378 233.382C263.663 234.096 264.075 235.063 264.588 236.265L264.609 236.315C265.65 238.759 267.081 242.123 268.63 246.133C271.727 254.148 275.304 264.771 277.191 275.862C279.077 286.941 279.29 298.569 275.579 308.549C271.851 318.577 264.187 326.867 250.501 331.255L250.38 331.294H195.992L192.159 473.85H146.058L128.669 330.599C126.04 314.904 128.581 291.02 144.709 270.251C160.861 249.451 190.546 231.893 241.987 228.718L242.067 228.713ZM145.99 271.245C130.176 291.611 127.7 315.029 130.271 330.349L130.274 330.367L147.495 472.229H190.58L194.414 329.673H250.126C263.273 325.424 270.519 317.506 274.059 307.984C277.628 298.386 277.456 287.085 275.593 276.134C273.731 265.194 270.196 254.685 267.118 246.717C265.579 242.735 264.158 239.394 263.117 236.951L263.088 236.882C262.582 235.695 262.165 234.715 261.872 233.985C261.724 233.613 261.602 233.294 261.517 233.039C261.516 233.034 261.514 233.029 261.512 233.025L242.006 230.341C190.954 233.509 161.778 250.914 145.99 271.245Z" fill="black"/>
<path d="M184.522 300.905C191.096 307.478 194.382 323.363 195.204 330.484H201.366C199.723 322.404 194.053 305.177 184.522 300.905Z" fill="#000001"/>
<path d="M0 330H351V332H0V330Z" fill="black"/>
<path d="M192.861 81.3776C190.697 78.6236 185.071 70.1647 179.877 58.3616C181.058 56.9845 183.3 52.8139 182.828 47.1484C176.691 46.2041 172.971 32.9847 171.879 26.493C180.029 21.9719 173.084 9.91147 175.746 9.37877C178.697 8.78832 186.369 11.7391 186.369 19.4111C186.369 27.0831 199.514 23.4617 202.893 21.7717C211.155 17.6406 208.205 27.6739 204.664 37.116C202.775 40.4209 209.385 46.7552 212.926 49.5093C213.87 58.9518 205.451 73.5089 201.123 79.6072C201.713 97.3118 201.831 132.721 197.582 132.721C194.749 127.056 193.254 96.1315 192.861 81.3776Z" fill="white"/>
<path fill-rule="evenodd" clip-rule="evenodd" d="M178.795 9.09735C177.613 8.77067 176.489 8.67882 175.64 8.84875C175.356 8.9056 175.115 9.04737 174.936 9.26629C174.765 9.47479 174.672 9.72507 174.621 9.97189C174.521 10.4537 174.553 11.0617 174.628 11.7047C174.694 12.2664 174.8 12.9068 174.912 13.5855C174.931 13.6972 174.95 13.81 174.968 13.9236C175.102 14.7344 175.239 15.6018 175.333 16.4969C175.714 20.1094 175.382 23.9316 171.617 26.0203L171.283 26.2057L171.346 26.5826C171.897 29.8574 173.11 34.83 174.966 39.1157C175.893 41.2577 176.992 43.2531 178.267 44.7817C179.431 46.178 180.78 47.2289 182.319 47.5985C182.641 52.902 180.533 56.7662 179.467 58.0098L179.246 58.268L179.383 58.5793C184.507 70.2258 190.056 78.6392 192.325 81.5698C192.525 88.9575 192.996 100.286 193.768 110.498C194.157 115.645 194.622 120.515 195.169 124.458C195.443 126.428 195.737 128.174 196.054 129.61C196.369 131.035 196.713 132.192 197.099 132.963L197.248 133.262H197.582C198.056 133.262 198.44 133.01 198.734 132.676C199.024 132.347 199.268 131.894 199.48 131.366C199.905 130.307 200.254 128.807 200.545 126.997C201.127 123.368 201.493 118.362 201.707 112.824C202.133 101.817 201.961 88.6296 201.669 79.7709C203.847 76.6807 206.99 71.5633 209.494 66.0353C212.028 60.4393 213.951 54.3276 213.464 49.4555L213.441 49.2249L213.258 49.0826C211.508 47.7218 209.006 45.4794 207.182 43.1831C206.269 42.0329 205.548 40.8965 205.167 39.8711C204.784 38.8412 204.774 38.0121 205.133 37.3842L205.155 37.3465L205.17 37.3058C206.934 32.6028 208.592 27.6518 208.745 24.379C208.783 23.5531 208.728 22.7979 208.535 22.1641C208.34 21.5241 207.994 20.9786 207.435 20.6375C206.88 20.2982 206.193 20.2084 205.409 20.3228C204.627 20.4368 203.712 20.7579 202.652 21.2883C201.024 22.1021 196.967 23.408 193.341 23.5621C191.524 23.6393 189.894 23.4231 188.738 22.7816C187.63 22.1668 186.91 21.1387 186.91 19.4111C186.91 15.3687 184.879 12.5604 182.477 10.8557C181.28 10.0062 179.987 9.42673 178.795 9.09735ZM181.851 11.7373C184.023 13.2784 185.829 15.7815 185.829 19.4111C185.829 21.5195 186.751 22.9158 188.213 23.7269C189.627 24.5113 191.495 24.7226 193.387 24.6422C197.178 24.4811 201.383 23.1313 203.135 22.2552C204.14 21.7528 204.94 21.4837 205.565 21.3926C206.187 21.3018 206.597 21.3919 206.872 21.5599C207.143 21.7259 207.359 22.015 207.501 22.4793C207.644 22.9498 207.7 23.5686 207.665 24.3288C207.522 27.3921 205.944 32.1611 204.172 36.8876C203.612 37.9034 203.723 39.0896 204.153 40.2477C204.591 41.4256 205.39 42.6646 206.336 43.8553C208.166 46.1599 210.629 48.3862 212.409 49.7908C212.785 54.3281 210.988 60.1136 208.509 65.5893C205.997 71.1352 202.829 76.2691 200.682 79.2943L200.577 79.443L200.583 79.6252C200.878 88.4704 201.054 101.735 200.627 112.782C200.413 118.31 200.049 123.263 199.477 126.826C199.19 128.613 198.856 130.018 198.477 130.964C198.286 131.439 198.097 131.764 197.923 131.962C197.903 131.985 197.883 132.006 197.864 132.024C197.609 131.382 197.356 130.492 197.11 129.377C196.801 127.979 196.511 126.264 196.24 124.309C195.698 120.399 195.234 115.554 194.846 110.417C194.069 100.145 193.598 88.7342 193.401 81.3632L193.396 81.1844L193.286 81.0437C191.171 78.352 185.645 70.0532 180.505 58.4448C181.799 56.757 183.825 52.6038 183.367 47.1035L183.331 46.6789L182.91 46.6141C181.559 46.4062 180.283 45.5122 179.097 44.0893C177.914 42.6708 176.864 40.7785 175.958 38.6862C174.214 34.6597 173.044 29.9848 172.476 26.7714C176.54 24.301 176.786 19.9688 176.408 16.3835C176.31 15.4552 176.169 14.5616 176.035 13.748C176.016 13.6318 175.997 13.5174 175.978 13.405C175.866 12.7238 175.764 12.1129 175.702 11.579C175.628 10.9457 175.618 10.4888 175.679 10.1914C175.709 10.0486 175.748 9.98078 175.772 9.95188C175.787 9.9334 175.804 9.91852 175.852 9.90878C176.479 9.78348 177.421 9.83906 178.507 10.1393C179.584 10.4369 180.762 10.9639 181.851 11.7373Z" fill="black"/>
<path fill-rule="evenodd" clip-rule="evenodd" d="M187.768 34.5947C185.499 31.4181 186.83 28.7705 187.739 27.861L187.357 27.4788C186.299 28.5365 184.876 31.4757 187.328 34.9089L187.768 34.5947Z" fill="#241715"/>
<path fill-rule="evenodd" clip-rule="evenodd" d="M191.953 38.344C192.244 37.772 192.433 37.1361 192.535 36.575L192.003 36.4783C191.908 36.999 191.734 37.5829 191.471 38.099C191.207 38.6178 190.866 39.0462 190.451 39.2881C190.048 39.5229 189.55 39.5973 188.921 39.3658C188.28 39.1298 187.499 38.5731 186.569 37.5274L186.165 37.8865C187.124 38.9653 187.976 39.5939 188.734 39.873C189.505 40.1567 190.172 40.0761 190.723 39.7552C191.262 39.4414 191.663 38.9132 191.953 38.344Z" fill="#241715"/>
<path fill-rule="evenodd" clip-rule="evenodd" d="M205.868 25.4923C205.82 26.7151 205.388 28.2778 204.999 29.3497L205.507 29.5344C205.904 28.4424 206.357 26.8183 206.408 25.5133C206.433 24.8682 206.363 24.2492 206.09 23.8154C205.949 23.591 205.753 23.4144 205.493 23.3168C205.236 23.2204 204.94 23.2094 204.609 23.2755L204.715 23.8055C204.975 23.7536 205.165 23.7709 205.303 23.8228C205.438 23.8735 205.546 23.9652 205.632 24.1029C205.815 24.3932 205.892 24.8734 205.868 25.4923Z" fill="#241715"/>
<path d="M182.198 53.639C182.718 51.8371 183.035 49.6366 182.827 47.1475C186.098 48.9182 191.679 49.5084 203.482 41.2457C203.953 47.3833 189.489 52.0652 182.198 53.639Z" fill="black"/>
<path d="M212.335 9.37822C216.466 19.4109 207.024 32.9844 204.663 37.1155C208.204 27.6733 210.564 17.6401 202.893 21.7712C199.565 23.5628 186.368 27.0826 186.368 19.4106C186.368 11.7385 178.696 8.78777 175.745 9.37822C173.083 9.91092 180.028 21.9714 171.878 26.4924C170.995 26.9826 169.934 27.3841 168.664 27.6727C171.614 23.5416 170.434 24.1318 168.073 14.0992C165.713 4.06653 176.336 1.70621 186.368 0.525906C196.401 -0.654403 208.204 -0.654404 212.335 9.37822Z" fill="black"/>
<path d="M267.809 73.1157C260.255 63.2011 228.072 53.2472 212.925 49.5095C213.869 58.952 205.449 73.5091 201.122 79.6074C201.712 97.312 201.83 132.721 197.581 132.721C194.748 127.056 193.253 96.1317 192.86 81.3779C190.696 78.6238 185.07 70.1649 179.876 58.3618C178.696 61.9028 146.828 86.0991 141.516 93.7711C136.205 101.443 134.434 175.212 134.434 181.704C134.434 188.196 132.074 232.457 151.549 232.457C167.129 232.457 230.826 234.621 263.088 235.408C267.809 185.442 275.363 83.0303 267.809 73.1157Z" fill="black"/>
<path fill-rule="evenodd" clip-rule="evenodd" d="M217.327 84.3512C219.209 65.0521 227.517 56.7429 231.333 55.0075L231.11 54.5154C227.057 56.3581 218.683 64.8836 216.789 84.2987C215.61 96.3768 213.132 104.449 210.202 109.492C207.272 114.537 203.916 116.513 200.981 116.513V117.054C204.184 117.054 207.687 114.898 210.67 109.764C213.654 104.627 216.144 96.4694 217.327 84.3512ZM248.845 61.5657C248.845 61.5656 248.836 61.5647 248.821 61.5582L249.031 61.0604C248.925 61.0155 248.811 61.0215 248.724 61.0346C248.63 61.0489 248.525 61.0789 248.413 61.1194C248.19 61.2009 247.911 61.3362 247.587 61.5215C246.938 61.893 246.085 62.4801 245.095 63.2864C243.113 64.9001 240.571 67.4031 238.013 70.8456C232.894 77.7325 227.709 88.3821 226.821 103.194C225.937 117.918 220.782 139.108 211.009 152.922C206.125 159.826 200.109 164.857 192.926 166.35C185.754 167.841 177.353 165.817 167.663 158.48C160.28 151.099 153.031 145.094 147.324 141.054C144.469 139.034 141.995 137.501 140.08 136.534C139.123 136.05 138.298 135.704 137.629 135.51C137.295 135.413 136.993 135.352 136.729 135.333C136.468 135.314 136.226 135.335 136.023 135.418L136.229 135.918C136.325 135.879 136.473 135.857 136.69 135.872C136.904 135.888 137.167 135.939 137.478 136.029C138.102 136.21 138.894 136.54 139.836 137.016C141.719 137.967 144.169 139.483 147.011 141.495C152.695 145.518 159.926 151.508 167.294 158.876L167.307 158.889L167.321 158.9C177.1 166.307 185.661 168.412 193.036 166.879C200.404 165.348 206.523 160.199 211.451 153.234C221.301 139.31 226.473 118.01 227.36 103.226C228.242 88.5299 233.384 77.9795 238.446 71.1681C240.978 67.7614 243.489 65.2909 245.436 63.7056C246.41 62.9125 247.239 62.3438 247.856 61.9906C248.165 61.8135 248.415 61.6942 248.598 61.6273C248.691 61.5937 248.759 61.576 248.805 61.569C248.834 61.5647 248.845 61.5658 248.845 61.5657ZM164.54 89.9815C168.92 94.0673 172.544 100.655 174.896 109.183C176.807 116.109 180.567 119.098 184.53 119.969C188.464 120.833 192.538 119.597 195.087 118.201L194.827 117.727C192.349 119.084 188.411 120.268 184.646 119.441C180.911 118.62 177.284 115.806 175.417 109.04C173.048 100.453 169.386 93.7626 164.909 89.5862C160.424 85.4025 155.115 83.7408 149.506 85.2442L149.646 85.7663C155.046 84.3189 160.168 85.903 164.54 89.9815ZM242.695 158.613C234.711 121.473 258.099 96.5168 270.785 88.686L270.501 88.226C257.694 96.1316 234.112 121.294 242.17 158.741L242.173 158.756L242.178 158.77C245.734 169.439 250.785 174.296 255.712 175.981C260.631 177.662 265.35 176.156 268.193 174.253L267.893 173.804C265.15 175.639 260.606 177.083 255.887 175.469C251.179 173.86 246.221 169.179 242.695 158.613ZM194.931 174.909C174.74 174.574 150.522 178.09 134.381 181.436L134.491 181.965C150.612 178.623 174.786 175.115 194.922 175.449C204.994 175.616 214.029 176.745 220.536 179.318C227.04 181.89 230.951 185.872 230.951 191.733C230.951 203.649 223.554 213 214.242 219.862C204.932 226.723 193.753 231.06 186.303 232.951L186.436 233.475C193.937 231.571 205.184 227.209 214.562 220.297C223.938 213.388 231.492 203.896 231.492 191.733C231.492 185.555 227.338 181.427 220.735 178.816C214.136 176.206 205.023 175.076 194.931 174.909ZM252.517 209.656C256.696 204.901 262.163 203.266 265.911 203.216L265.904 202.676C262.025 202.727 256.404 204.414 252.111 209.3C247.812 214.191 244.874 222.254 246.297 234.995L246.834 234.935C245.424 222.302 248.343 214.405 252.517 209.656ZM185.43 207.913C186.82 208.282 187.866 208.845 188.525 209.614C191.241 212.782 190.429 217.256 188.18 221.675C185.94 226.074 182.333 230.297 179.691 232.84L180.065 233.229C182.735 230.66 186.386 226.39 188.661 221.921C190.926 217.472 191.885 212.703 188.935 209.262C188.178 208.378 187.016 207.775 185.569 207.391C184.12 207.006 182.362 206.834 180.382 206.831C176.423 206.825 171.536 207.497 166.377 208.538C156.056 210.622 144.599 214.197 137.198 216.855L137.381 217.364C144.766 214.711 156.197 211.145 166.484 209.068C171.628 208.029 176.475 207.366 180.381 207.371C182.335 207.374 184.043 207.544 185.43 207.913Z" fill="white"/>
<path fill-rule="evenodd" clip-rule="evenodd" d="M197.311 133.306V232.452H197.851V133.306H197.311Z" fill="#027269"/>
<path d="M197.935 231.486L195.035 209.922C188.44 211.118 174.704 212.277 164.093 213.283C152.985 214.336 150.186 220.168 157.642 222.03C153.742 221.544 149.376 226.921 155.599 229.328C151.034 230.95 160.063 232.759 164.489 232.768C161.956 233.151 157.564 233.857 158.161 236.541C158.758 239.225 184.926 234.29 197.935 231.486Z" fill="white"/>
<path d="M197.936 231.487L195.035 209.922C193.501 210.2 191.58 210.477 189.402 210.75L182.804 234.49C188.348 233.482 193.805 232.377 197.936 231.487Z" fill="black"/>
<path fill-rule="evenodd" clip-rule="evenodd" d="M173.92 230.604L164.743 233.187L164.597 232.667L173.773 230.084L173.92 230.604Z" fill="black"/>
<path fill-rule="evenodd" clip-rule="evenodd" d="M173.821 225.48L157.734 227.433L157.669 226.896L173.756 224.943L173.821 225.48Z" fill="black"/>
<path fill-rule="evenodd" clip-rule="evenodd" d="M174.12 219.454L157.689 222.296L157.596 221.764L174.028 218.922L174.12 219.454Z" fill="black"/>
<path d="M285.318 212.549C286.746 189.948 288.305 76.0491 262.81 69.9092C233.341 62.8121 233.727 171.434 246.521 196.215L186.344 202.332L191.991 239.877C221.247 237.834 282.955 249.949 285.318 212.549Z" fill="black"/>
<path fill-rule="evenodd" clip-rule="evenodd" d="M246.102 195.985C242.967 189.667 240.605 178.362 239.255 165.054C237.879 151.482 237.552 135.787 238.547 121.089C239.541 106.396 241.859 92.6754 245.783 83.063C247.745 78.258 250.118 74.4546 252.95 72.0751C255.795 69.6855 259.099 68.7371 262.873 69.6461L262.747 70.1716C259.154 69.3063 256.023 70.1998 253.298 72.4889C250.561 74.788 248.23 78.4999 246.283 83.2674C242.392 92.8 240.079 106.453 239.086 121.126C238.093 135.793 238.42 151.457 239.793 164.999C241.168 178.554 243.587 189.944 246.761 196.09L246.943 196.443L186.372 202.6L186.317 202.063L246.102 195.985Z" fill="white"/>
<path fill-rule="evenodd" clip-rule="evenodd" d="M256.486 91.5603C263.276 88.5945 270.584 87.0385 275.115 86.5459L275.056 86.0085C270.48 86.5061 263.117 88.0739 256.27 91.065C249.433 94.0517 243.05 98.4843 240.527 104.747L241.028 104.949C243.47 98.8882 249.687 94.5306 256.486 91.5603ZM263.832 117.049C269.945 112.045 276.779 108.139 280.859 106.355L280.643 105.86C276.517 107.664 269.641 111.595 263.49 116.631C257.351 121.657 251.874 127.831 250.643 134.132C250.332 135.727 250.468 137.077 250.986 138.207C251.504 139.336 252.393 140.218 253.543 140.898C255.831 142.249 259.194 142.818 262.911 142.926C270.356 143.143 279.394 141.515 284.587 140.364L284.47 139.836C279.286 140.985 270.303 142.601 262.926 142.386C259.232 142.278 255.984 141.712 253.818 140.432C252.74 139.796 251.94 138.989 251.477 137.981C251.016 136.975 250.879 135.743 251.174 134.236C252.366 128.133 257.708 122.063 263.832 117.049ZM275.385 164.687C279.546 164.012 283.082 163.086 285.272 162.063L285.043 161.573C282.921 162.564 279.443 163.481 275.298 164.153C271.159 164.824 266.373 165.246 261.646 165.256C256.917 165.265 252.256 164.862 248.363 163.886C244.46 162.909 241.375 161.368 239.736 159.14L239.301 159.46C241.052 161.842 244.289 163.423 248.231 164.411C252.183 165.401 256.892 165.806 261.647 165.796C266.404 165.786 271.218 165.362 275.385 164.687ZM264.109 191.261C272.388 194.089 280.935 198.096 285.332 200.764L285.612 200.302C281.176 197.61 272.592 193.587 264.284 190.749C260.129 189.33 256.033 188.204 252.553 187.69C250.812 187.434 249.218 187.329 247.843 187.42C246.471 187.511 245.297 187.798 244.413 188.342L244.696 188.803C245.476 188.322 246.552 188.047 247.879 187.959C249.203 187.871 250.756 187.972 252.474 188.225C255.909 188.732 259.97 189.847 264.109 191.261ZM219.905 208.11C219.621 204.099 219.964 200.74 220.879 198.758L220.388 198.531C219.414 200.641 219.08 204.113 219.366 208.148C219.653 212.195 220.566 216.849 222.124 221.349C225.231 230.324 230.943 238.792 239.467 240.458L239.57 239.927C231.347 238.32 225.728 230.107 222.635 221.172C221.092 216.717 220.189 212.109 219.905 208.11Z" fill="white"/>
<path d="M27.2004 155.671H128.547C130.323 155.671 131.918 156.757 132.57 158.409L162.669 234.707C163.321 236.359 164.916 237.444 166.692 237.444H245.522C246.972 237.444 248.148 238.62 248.148 240.07C248.148 241.52 246.972 242.696 245.522 242.696H58.2806C56.5077 242.696 54.9144 241.614 54.2609 239.966L23.1807 161.59C22.055 158.751 24.1467 155.671 27.2004 155.671Z" fill="white"/>
<path fill-rule="evenodd" clip-rule="evenodd" d="M133.324 158.111C132.55 156.15 130.656 154.861 128.547 154.861H27.2004C23.5741 154.861 21.0903 158.517 22.427 161.888L53.5072 240.265C54.2833 242.222 56.1753 243.507 58.2806 243.507H245.522C247.42 243.507 248.959 241.968 248.959 240.07C248.959 238.172 247.42 236.634 245.522 236.634H166.692C165.249 236.634 163.953 235.752 163.424 234.41L133.324 158.111ZM128.547 156.482C129.99 156.482 131.286 157.364 131.816 158.706L161.915 235.005C162.689 236.966 164.583 238.255 166.692 238.255H245.522C246.525 238.255 247.337 239.068 247.337 240.07C247.337 241.073 246.525 241.885 245.522 241.885H58.2806C56.8401 241.885 55.5456 241.006 55.0146 239.667L23.9344 161.291C23.0198 158.984 24.7192 156.482 27.2004 156.482H128.547Z" fill="black"/>
<path d="M132.108 157.159L165.448 237.444H163.196C161.45 237.444 159.875 236.394 159.204 234.783L127.651 159.013C126.989 157.423 128.157 155.671 129.879 155.671C130.854 155.671 131.734 156.258 132.108 157.159Z" fill="black"/>
<path d="M54.2609 239.966L23.1807 161.59C22.055 158.751 24.1467 155.671 27.2004 155.671H35.0148C35.6581 155.671 36.2913 155.815 36.8756 156.084C39.6416 157.358 44.263 159.361 51.9373 163.239C77.6123 176.211 80.8554 203.778 75.4502 217.291C71.0681 228.246 128.989 239.57 151.746 242.696H58.2806C56.5077 242.696 54.9144 241.614 54.2609 239.966Z" fill="black"/>
<path d="M83.2052 194.168C84.6431 198.001 88.5114 200.096 91.8453 198.845C95.1791 197.595 96.716 193.473 95.2781 189.64C93.8402 185.806 89.9719 183.711 86.638 184.962C83.3042 186.212 81.7672 190.334 83.2052 194.168Z" fill="black"/>
</svg>
